<svg width="258" height="298" viewBox="0 0 258 298" fill="none" xmlns="http://www.w3.org/2000/svg">
<path d="M137.337 91.6885C137.337 86.3725 136.104 81.5029 135.797 76.2869C135.76 75.6493 134.656 70.3485 135.54 73.1781C136.261 75.4835 137.406 77.8957 139.134 79.6239C140.081 80.5704 141 81.49 141.958 82.4475C143.037 83.5268 143.78 85.6788 144.924 86.1553C145.543 86.4131 148.363 92.005 145.551 89.3497C142.537 86.5024 137.033 83.9877 132.974 83.9877C132.032 83.9877 131.091 83.9877 130.15 83.9877C128.234 83.9877 131.247 84.0451 131.804 83.8736C132.926 83.5284 133.927 83.6902 135.027 83.4458C136.198 83.1855 136.81 82.1468 138.136 81.9056C139.744 81.6132 144.184 79.5321 145.152 78.3405C145.693 77.6748 146.523 78.1074 147.092 77.5989C147.569 77.172 147.776 76.1731 148.347 75.8876C149.094 75.5137 147.755 77.3777 147.491 77.8271C146.674 79.2157 143.987 80.6849 142.699 81.4208C140.919 82.4381 139.924 83.7897 139.362 85.756C139.145 86.5174 138.544 87.1744 137.965 87.6955C137.133 88.444 137.787 89.329 137.223 90.0343C135.544 92.1338 135.284 93.1001 135.284 95.7956" stroke="#B18CEC" stroke-width="3" stroke-linecap="round"/>
<path d="M12.071 180.504C12.071 175.66 12.648 170.629 10.5309 166.13C9.96591 164.929 10.2883 163.847 9.90341 162.65C9.50388 161.407 8.69723 160.282 8.50586 158.942C8.09253 156.049 9.84522 159.648 9.98897 160.511C10.3166 162.476 11.9486 163.413 12.071 165.616C12.0855 165.876 14.7725 170.09 15.1514 170.351C16.6523 171.383 15.7288 173.37 17.4331 174.344C18.3889 174.89 17.0058 175.561 16.1781 174.857C15.4091 174.203 14.0096 172.608 13.0978 172.347C9.27685 171.256 6.29782 169.723 2.14557 169.723C0.501411 169.723 5.4071 170.237 7.05126 170.237C9.61091 170.237 12.4499 168.908 14.4668 167.442C16.6806 165.832 19.2284 165.119 21.5687 163.819C24.5992 162.136 20.9956 163.823 20.3137 164.846C18.5108 167.551 14.1652 168.061 13.0978 171.263" stroke="#B18CEC" stroke-width="3" stroke-linecap="round"/>
<path d="M217.939 6.97973C217.675 9.09057 216.099 11.816 215.372 13.8819C214.159 17.3286 213.318 18.8702 213.318 22.581C213.318 27.4861 215.572 29.9426 219.194 32.9057C228.012 40.1205 240.873 38.3781 247.459 29.5973C252.957 22.2662 243.76 7.7164 236.535 5.04027C234.532 4.29856 232.047 3.6719 230.004 3.35751C227.697 3.00259 226.195 2.27016 223.7 2.35926C221.989 2.42036 216.076 5.05838 215.372 6.46635" stroke="#B18CEC" stroke-width="3" stroke-linecap="round"/>
<path d="M212.292 15.7074C208.439 17.8743 204.546 20.952 205.104 25.9751C205.273 27.4889 208.453 27.0019 209.468 27.0019C211.221 27.0019 213.207 28.1109 215.03 28.4279C217.276 28.8186 219.777 28.542 222.046 28.542C224.889 28.542 228.15 28.9748 230.945 28.4279C236.423 27.3561 242.04 26.196 247.487 24.8342C249.595 24.3072 253.197 23.3458 254.789 21.7539C258.383 18.1596 250.511 13.6538 247.202 13.6538" stroke="#B18CEC" stroke-width="3" stroke-linecap="round"/>
<path d="M204.591 46.5105C202.875 46.5105 199.457 48.3355 199.457 50.3609C199.457 51.964 201.325 55.7515 203.307 55.7515C205.695 55.7515 208.272 54.0049 209.097 51.5303C210.26 48.0423 206.913 47.0239 204.078 47.0239" stroke="#B18CEC" stroke-width="3" stroke-linecap="round"/>
<path d="M191.243 165.103C187.454 165.103 180.975 169.533 180.975 173.431C180.975 175.945 180.331 178.92 182.116 180.904C184.171 183.187 187.451 183.071 190.273 183.071C193.736 183.071 195.153 182.728 198.145 181.018C199.4 180.3 199.457 175.876 199.457 174.543C199.457 169.979 198.274 164.589 192.783 164.589" stroke="#B18CEC" stroke-width="3" stroke-linecap="round"/>
<path d="M211.778 165.103C211.03 165.196 208.594 171.167 210.238 171.263C212.33 171.386 214.261 171.251 216.113 170.721C218.425 170.061 217.851 166.976 217.397 165.388C216.977 163.919 212.954 164.589 211.778 164.589" stroke="#B18CEC" stroke-width="3" stroke-linecap="round"/>
<path d="M20.2851 148.161C20.2851 145.402 19.7717 142.554 19.7717 139.947" stroke="#B18CEC" stroke-width="3" stroke-linecap="round"/>
<path d="M14.1245 142C17.8423 142 20.2836 145.081 23.8789 145.081" stroke="#B18CEC" stroke-width="3" stroke-linecap="round"/>
<path d="M17.2048 144.054C18.6595 144.054 19.6961 143.027 21.0552 143.027C22.5025 143.027 24.0095 143.531 24.3922 142" stroke="#B18CEC" stroke-width="3" stroke-linecap="round"/>
<path d="M231.8 283.182C231.8 285.577 231.8 287.973 231.8 290.369C231.8 292.443 232.827 294.042 232.827 296.016" stroke="#B18CEC" stroke-width="3" stroke-linecap="round"/>
<path d="M228.72 292.936C229.988 291.668 231.352 290.034 232.827 289.086C233.95 288.364 233.47 287.771 233.968 286.775C234.312 286.087 235.405 285.392 235.907 284.722" stroke="#B18CEC" stroke-width="3" stroke-linecap="round"/>
<path d="M226.153 287.289C227.219 287.407 228.534 288.836 229.519 289.342C230.262 289.724 232.873 290.656 233.312 291.168C234.816 292.922 236.722 292.617 237.961 294.476" stroke="#B18CEC" stroke-width="3" stroke-linecap="round"/>
</svg>
