<svg width="196" height="186" viewBox="0 0 196 186" fill="none" xmlns="http://www.w3.org/2000/svg">
<path d="M91.0308 4.36459C94.0909 -1.06456 101.909 -1.06456 104.969 4.3646L131.117 50.7547C132.258 52.7802 134.224 54.2087 136.504 54.6686L188.703 65.2009C194.812 66.4335 197.228 73.8691 193.01 78.4571L156.971 117.66C155.397 119.372 154.646 121.683 154.913 123.993L161.027 176.892C161.742 183.083 155.417 187.679 149.75 185.085L101.329 162.924C99.2152 161.956 96.7848 161.956 94.6707 162.924L46.2496 185.085C40.5827 187.679 34.2576 183.083 34.9731 176.892L41.0869 123.993C41.3538 121.683 40.6028 119.372 39.0293 117.66L2.98961 78.4571C-1.2282 73.8691 1.18776 66.4335 7.29681 65.2009L59.4965 54.6686C61.7755 54.2087 63.7418 52.7801 64.8834 50.7547L91.0308 4.36459Z" fill="#F7F4E9"/>
</svg>
