<svg width="83" height="62" viewBox="0 0 83 62" fill="none" xmlns="http://www.w3.org/2000/svg">
<path d="M55.2881 24.4517C58.689 32.2927 55.0576 41.4356 47.1537 44.8638C39.2499 48.292 30.093 44.6959 26.6921 36.8549C23.2911 29.014 26.9226 19.8711 34.8265 16.4429C42.7303 13.0146 51.8872 16.6107 55.2881 24.4517Z" stroke="#B18CEC" stroke-width="3"/>
<path d="M53.943 17.5442C61.2099 15.2341 67.2924 13.9819 71.2016 13.9912C75.1108 14.0004 76.6168 15.2707 75.4746 17.5953C74.3325 19.92 70.6094 23.1623 64.9108 26.7951C59.2121 30.428 51.873 34.2377 44.0869 37.6048C36.3007 40.9719 28.5253 43.6983 22.025 45.3409C15.5246 46.9834 10.6817 47.4454 8.28352 46.6518C5.88536 45.8581 6.07305 43.8555 8.81607 40.9695C11.5591 38.0835 16.6961 34.4839 23.3919 30.7559L26.2208 30.717C20.5869 33.8538 16.2646 36.8825 13.9566 39.3108C11.6486 41.7391 11.4906 43.4242 13.5085 44.092C15.5263 44.7597 19.6012 44.371 25.0706 42.989C30.5401 41.6069 37.0823 39.3128 43.6337 36.4797C50.1851 33.6466 56.3602 30.4411 61.1551 27.3844C65.95 24.3277 69.0826 21.5996 70.0437 19.6436C71.0047 17.6876 69.7375 16.6188 66.4483 16.611C63.1591 16.6032 58.0412 17.6568 51.9268 19.6006L53.943 17.5442Z" fill="#B18CEC"/>
</svg>
