<svg width="663" height="15" viewBox="0 0 663 15" fill="none" xmlns="http://www.w3.org/2000/svg">
<path d="M661.508 7H352.75" stroke="#F7F4E9" stroke-linecap="square"/>
<path d="M341.268 4.1559C341.298 3.23409 342.51 2.91626 343.091 3.67783L343.21 3.83481C343.471 4.17713 343.919 4.33409 344.327 4.22685L344.482 4.18635C345.394 3.94706 346.131 5.01703 345.532 5.71132V5.71132C345.255 6.03347 345.252 6.51225 345.522 6.86664V6.86664C346.103 7.62873 345.394 8.63459 344.474 8.33998L344.175 8.24422C343.782 8.11852 343.362 8.22885 343.107 8.52443L342.913 8.7496C342.316 9.44235 341.113 8.93812 341.143 8.01568V8.01568C341.157 7.58672 340.866 7.18487 340.438 7.04787V7.04787C339.516 6.75261 339.492 5.49557 340.404 5.25629L340.558 5.21579C340.967 5.10854 341.249 4.76026 341.262 4.34591L341.268 4.1559Z" fill="#F7F4E9"/>
<path d="M330.035 2.59087C330.354 1.7123 331.596 1.7123 331.915 2.59087L332.616 4.52344C332.76 4.91898 333.135 5.18237 333.556 5.18237H335.569C336.565 5.18237 336.949 6.47783 336.115 7.02057L334.683 7.95229C334.293 8.20584 334.129 8.69452 334.288 9.13156L334.878 10.7588C335.206 11.6611 334.198 12.4615 333.393 11.9381L331.52 10.7196C331.189 10.5038 330.761 10.5038 330.429 10.7196L328.557 11.9381C327.752 12.4615 326.744 11.6611 327.071 10.7588L327.662 9.13156C327.82 8.69452 327.657 8.20584 327.267 7.95229L325.835 7.02057C325.001 6.47783 325.385 5.18237 326.38 5.18237H328.394C328.814 5.18237 329.19 4.91898 329.334 4.52344L330.035 2.59087Z" fill="#F7F4E9"/>
<path d="M318.394 3.78046C319 3.03547 320.204 3.38761 320.203 4.30947L320.202 4.49349C320.202 4.90797 320.473 5.26426 320.879 5.38306L321.026 5.42607C321.932 5.69118 321.868 6.94645 320.934 7.21686V7.21686C320.501 7.34215 320.197 7.73466 320.196 8.16316V8.16316C320.195 9.08618 318.971 9.55364 318.396 8.8431L318.217 8.6217C317.972 8.31812 317.553 8.19563 317.155 8.31093L316.864 8.39502C315.932 8.66488 315.252 7.64071 315.859 6.89478V6.89478C316.141 6.54849 316.154 6.07094 315.887 5.74108V5.74108C315.312 5.02908 316.087 3.98161 316.993 4.24673L317.14 4.28973C317.547 4.40854 318 4.26413 318.273 3.92917L318.394 3.78046Z" fill="#F7F4E9"/>
<path d="M309.758 7H1" stroke="#F7F4E9" stroke-linecap="square"/>
</svg>
