<svg width="204" height="204" viewBox="0 0 204 204" fill="none" xmlns="http://www.w3.org/2000/svg">
<path d="M159.244 57.5095C162.587 54.214 162.626 48.8323 159.33 45.489C156.035 42.1457 150.653 42.107 147.31 45.4025L159.244 57.5095ZM44.7563 146.49C41.413 149.786 41.3743 155.168 44.6698 158.511C47.9652 161.854 53.347 161.893 56.6903 158.597L44.7563 146.49ZM147.31 45.4025L44.7563 146.49L56.6903 158.597L159.244 57.5095L147.31 45.4025Z" fill="#A1A3AB"/>
<path d="M146.068 159.57C149.338 162.937 154.72 163.016 158.087 159.745C161.455 156.474 161.533 151.093 158.262 147.725L146.068 159.57ZM57.9323 44.4302C54.6615 41.0627 49.2802 40.9844 45.9127 44.2551C42.5453 47.5259 42.4669 52.9072 45.7377 56.2747L57.9323 44.4302ZM158.262 147.725L57.9323 44.4302L45.7377 56.2747L146.068 159.57L158.262 147.725Z" fill="#A1A3AB"/>
</svg>
